<svg viewBox="0 0 14 14" fill="none" xmlns="http://www.w3.org/2000/svg">
<path fill-rule="evenodd" clip-rule="evenodd" d="M0 1.16667C0 0.522334 0.522334 0 1.16667 0H12.8333C13.4777 0 14 0.522334 14 1.16667V12.8333C14 13.4777 13.4777 14 12.8333 14H1.16667C0.522334 14 0 13.4777 0 12.8333V1.16667ZM2.33333 3.5C2.33333 2.85567 2.85567 2.33333 3.5 2.33333C4.14433 2.33333 4.66667 2.85567 4.66667 3.5V10.5C4.66667 11.1443 4.14433 11.6667 3.5 11.6667C2.85567 11.6667 2.33333 11.1443 2.33333 10.5V3.5ZM7 5.83333C6.35567 5.83333 5.83333 6.35567 5.83333 7C5.83333 7.64433 6.35567 8.16667 7 8.16667H10.5C11.1443 8.16667 11.6667 7.64433 11.6667 7C11.6667 6.35567 11.1443 5.83333 10.5 5.83333H7ZM5.83333 3.5C5.83333 2.85567 6.35567 2.33333 7 2.33333H10.5C11.1443 2.33333 11.6667 2.85567 11.6667 3.5C11.6667 4.14433 11.1443 4.66667 10.5 4.66667H7C6.35567 4.66667 5.83333 4.14433 5.83333 3.5ZM7 9.33333C6.35567 9.33333 5.83333 9.85567 5.83333 10.5C5.83333 11.1443 6.35567 11.6667 7 11.6667H10.5C11.1443 11.6667 11.6667 11.1443 11.6667 10.5C11.6667 9.85567 11.1443 9.33333 10.5 9.33333H7Z" fill="#999999"/>
</svg>
