<svg width="8" height="7" viewBox="0 0 8 7" fill="none" xmlns="http://www.w3.org/2000/svg">
<path d="M6.86787 0.218635L2.66393 5.12L1.13213 3.33407C1.00613 3.1922 0.837387 3.11369 0.66223 3.11547C0.487073 3.11724 0.319522 3.19915 0.195663 3.34356C0.0718038 3.48797 0.00154732 3.68332 2.52535e-05 3.88753C-0.00149681 4.09174 0.0658374 4.28849 0.187525 4.43538L2.19163 6.77196C2.3169 6.91797 2.48679 7 2.66393 7C2.84107 7 3.01096 6.91797 3.13623 6.77196L7.81247 1.31994C7.93416 1.17305 8.0015 0.976306 7.99997 0.772092C7.99845 0.567877 7.9282 0.37253 7.80434 0.228123C7.68048 0.0837158 7.51293 0.00180401 7.33777 2.9443e-05C7.16261 -0.00174513 6.99387 0.0767595 6.86787 0.218635Z" fill="white"/>
</svg>
