<svg width="14" height="14" viewBox="0 0 14 14" fill="none" xmlns="http://www.w3.org/2000/svg">
<path d="M13.9469 5.00488C13.9003 4.90357 13.8256 4.81775 13.7317 4.75757C13.6378 4.6974 13.5287 4.66539 13.4172 4.66534H7.16424L8.14902 0.722695C8.18026 0.595449 8.16775 0.461393 8.11351 0.342122C8.05928 0.222851 7.96647 0.125309 7.85004 0.0652093C7.73362 0.00510947 7.60035 -0.0140492 7.47171 0.0108194C7.34307 0.0356881 7.22654 0.103136 7.1409 0.202299L0.140057 8.36995C0.0676288 8.45463 0.0209653 8.55828 0.00558483 8.66864C-0.00979568 8.779 0.00675011 8.89145 0.0532654 8.99271C0.0997808 9.09396 0.17432 9.17978 0.268068 9.24C0.361815 9.30023 0.47085 9.33235 0.582277 9.33257H6.8352L5.85041 13.2752C5.81872 13.4027 5.83097 13.5371 5.88518 13.6568C5.93939 13.7764 6.03238 13.8742 6.14912 13.9345C6.23154 13.9777 6.32326 14.0001 6.41631 13.9998C6.50038 13.9996 6.58343 13.9813 6.65975 13.9461C6.73608 13.9108 6.80389 13.8595 6.85853 13.7956L13.8594 5.62795C13.932 5.54332 13.9788 5.43965 13.9943 5.32922C14.0098 5.2188 13.9934 5.10624 13.9469 5.00488Z" fill="#999999"/>
</svg>
