<svg width="8" height="8" viewBox="0 0 8 8" fill="none" xmlns="http://www.w3.org/2000/svg">
<path d="M7.20844 0.9375H0.791558C0.738437 0.937529 0.686331 0.957304 0.640862 0.994689C0.595393 1.03207 0.558288 1.08565 0.533552 1.14964C0.508816 1.21362 0.497388 1.28559 0.500501 1.35777C0.503614 1.42995 0.52115 1.4996 0.551217 1.55921L3.75966 6.89043C3.78646 6.94349 3.82235 6.98688 3.86422 7.01686C3.90609 7.04683 3.95269 7.0625 4 7.0625C4.04731 7.0625 4.09391 7.04683 4.13578 7.01686C4.17765 6.98688 4.21354 6.94349 4.24034 6.89043L7.44878 1.55921C7.47885 1.4996 7.49639 1.42995 7.4995 1.35777C7.50261 1.28559 7.49118 1.21362 7.46645 1.14964C7.44171 1.08565 7.40461 1.03207 7.35914 0.994689C7.31367 0.957304 7.26156 0.937529 7.20844 0.9375Z" fill="#999999"/>
</svg>
