<svg width="12" height="4" viewBox="0 0 12 4" fill="none" xmlns="http://www.w3.org/2000/svg">
<path d="M3.375 2C3.375 2.72487 2.78737 3.3125 2.0625 3.3125C1.33763 3.3125 0.75 2.72487 0.75 2C0.75 1.27513 1.33763 0.6875 2.0625 0.6875C2.78737 0.6875 3.375 1.27513 3.375 2Z" fill="white"/>
<path d="M6 3.3125C6.72487 3.3125 7.3125 2.72487 7.3125 2C7.3125 1.27513 6.72487 0.6875 6 0.6875C5.27513 0.6875 4.6875 1.27513 4.6875 2C4.6875 2.72487 5.27513 3.3125 6 3.3125Z" fill="white"/>
<path d="M9.9375 3.3125C10.6624 3.3125 11.25 2.72487 11.25 2C11.25 1.27513 10.6624 0.6875 9.9375 0.6875C9.21263 0.6875 8.625 1.27513 8.625 2C8.625 2.72487 9.21263 3.3125 9.9375 3.3125Z" fill="white"/>
</svg>
