<svg width="8" height="8" viewBox="0 0 8 8" fill="none" xmlns="http://www.w3.org/2000/svg">
<path d="M6.91667 3.41667H4.58333V1.08333C4.58333 0.928624 4.52187 0.780251 4.41248 0.670854C4.30308 0.561458 4.15471 0.5 4 0.5C3.84529 0.5 3.69692 0.561458 3.58752 0.670854C3.47812 0.780251 3.41667 0.928624 3.41667 1.08333V3.41667H1.08333C0.928624 3.41667 0.780251 3.47812 0.670854 3.58752C0.561458 3.69692 0.5 3.84529 0.5 4C0.5 4.15471 0.561458 4.30308 0.670854 4.41248C0.780251 4.52187 0.928624 4.58333 1.08333 4.58333H3.41667V6.91667C3.41667 7.07138 3.47812 7.21975 3.58752 7.32915C3.69692 7.43854 3.84529 7.5 4 7.5C4.15471 7.5 4.30308 7.43854 4.41248 7.32915C4.52187 7.21975 4.58333 7.07138 4.58333 6.91667V4.58333H6.91667C7.07138 4.58333 7.21975 4.52187 7.32915 4.41248C7.43854 4.30308 7.5 4.15471 7.5 4C7.5 3.84529 7.43854 3.69692 7.32915 3.58752C7.21975 3.47812 7.07138 3.41667 6.91667 3.41667Z" fill="#171618"/>
</svg>
