<svg width="16" height="16" viewBox="0 0 16 16" fill="none" xmlns="http://www.w3.org/2000/svg">
<path d="M12 4L12 13.3333L2.66667 13.3333L2.66667 8L9.5399e-08 8L1.58998e-08 14.6667C1.16829e-08 15.0203 0.140476 15.3594 0.390524 15.6095C0.640573 15.8595 0.979711 16 1.33333 16L13.3333 16C13.687 16 14.0261 15.8595 14.2761 15.6095C14.5262 15.3594 14.6667 15.0203 14.6667 14.6667L14.6667 2.66667C14.6667 2.31304 14.5262 1.97391 14.2761 1.72386C14.0261 1.47381 13.687 1.33333 13.3333 1.33333L6.66667 1.33333L6.66667 4L12 4Z" fill="#999999"/>
<path d="M2.66667 6.66668C4.13943 6.66668 5.33333 5.47277 5.33333 4.00001C5.33333 2.52725 4.13943 1.33334 2.66667 1.33334C1.19391 1.33334 0 2.52725 0 4.00001C0 5.47277 1.19391 6.66668 2.66667 6.66668Z" fill="#999999"/>
</svg>
