<svg viewBox="0 0 14 14" fill="none" xmlns="http://www.w3.org/2000/svg">
<path d="M13.673 12.0257L10.714 9.06676C11.5133 7.8592 11.8356 6.39782 11.6184 4.96608C11.4012 3.53434 10.6601 2.23428 9.53864 1.31805C8.41723 0.401819 6.9955 -0.0652758 5.5492 0.00735904C4.10291 0.0799939 2.73513 0.687182 1.71116 1.71116C0.687182 2.73513 0.0799939 4.10291 0.00735904 5.5492C-0.0652758 6.9955 0.401819 8.41723 1.31805 9.53864C2.23428 10.6601 3.53434 11.4012 4.96608 11.6184C6.39782 11.8356 7.8592 11.5133 9.06676 10.714L12.0257 13.673C12.2455 13.8852 12.5397 14.0026 12.8452 14C13.1506 13.9973 13.4428 13.8748 13.6588 13.6588C13.8748 13.4428 13.9973 13.1506 14 12.8452C14.0026 12.5397 13.8852 12.2455 13.673 12.0257ZM2.3648 5.85965C2.3648 5.16844 2.56977 4.49274 2.95379 3.91802C3.33781 3.34329 3.88363 2.89534 4.52223 2.63083C5.16083 2.36631 5.86353 2.2971 6.54147 2.43195C7.2194 2.5668 7.84212 2.89965 8.33089 3.38842C8.81965 3.87718 9.15251 4.4999 9.28736 5.17784C9.42221 5.85578 9.353 6.55848 9.08848 7.19708C8.82396 7.83568 8.37602 8.3815 7.80129 8.76552C7.22656 9.14954 6.55087 9.35451 5.85965 9.35451C4.93276 9.35451 4.04383 8.9863 3.38842 8.33089C2.733 7.67548 2.3648 6.78655 2.3648 5.85965Z" fill="#999999"/>
</svg>
