<svg width="6" height="10" viewBox="0 0 6 10" fill="none" xmlns="http://www.w3.org/2000/svg">
<path d="M5.78097 8.64565L2.28136 5L5.78097 1.35434C5.86304 1.26888 5.9241 1.17078 5.96068 1.06565C5.99725 0.960517 6.00862 0.850411 5.99414 0.741617C5.97966 0.632823 5.9396 0.527472 5.87626 0.431579C5.81292 0.335686 5.72754 0.251129 5.62499 0.182735C5.52244 0.114342 5.40473 0.0634515 5.27858 0.03297C5.15243 0.00248853 5.02031 -0.00698721 4.88976 0.00508382C4.75922 0.0171548 4.63281 0.0505362 4.51774 0.103322C4.40268 0.156108 4.30121 0.227264 4.21915 0.312729L0.219594 4.47919C0.0776067 4.62699 0.000244141 4.81067 0.000244141 5C0.000244141 5.18933 0.0776067 5.37301 0.219594 5.52081L4.21915 9.68727C4.38489 9.85987 4.62612 9.97054 4.88976 9.99491C5.15341 10.0193 5.41788 9.95539 5.62499 9.81726C5.72754 9.74887 5.81292 9.66431 5.87626 9.56842C5.9396 9.47253 5.97966 9.36717 5.99414 9.25838C6.02339 9.03866 5.94671 8.81826 5.78097 8.64565Z" fill="white"/>
</svg>
