<svg width="8" height="5" viewBox="0 0 8 5" fill="none" xmlns="http://www.w3.org/2000/svg">
<path d="M6.91652 0.182727L4 3.09907L1.08348 0.182727C1.0151 0.114337 0.936625 0.0634504 0.852519 0.0329708C0.768414 0.00249125 0.680329 -0.00698395 0.593294 0.00508631C0.506259 0.0171566 0.421978 0.0505358 0.345263 0.103318C0.268549 0.156101 0.200903 0.227253 0.146188 0.312712C0.0914734 0.398171 0.0507612 0.496264 0.026376 0.601389C0.00199082 0.706514 -0.00558977 0.816613 0.00406705 0.925401C0.0137239 1.03419 0.040429 1.13953 0.0826576 1.23542C0.124886 1.33131 0.181811 1.41586 0.250183 1.48425L3.58335 4.81721C3.70159 4.93553 3.84854 5 4 5C4.15146 5 4.29841 4.93553 4.41665 4.81721L7.74981 1.48425C7.8879 1.34613 7.97643 1.14511 7.99593 0.925401C8.01543 0.705695 7.96431 0.485304 7.85381 0.312712C7.79909 0.227253 7.73145 0.156101 7.65473 0.103318C7.57802 0.0505358 7.49374 0.0171566 7.4067 0.00508631C7.23093 -0.0192907 7.0546 0.0446085 6.91652 0.182727V0.182727Z" fill="#999999"/>
</svg>
