<svg width="16" height="16" viewBox="0 0 16 16" fill="none" xmlns="http://www.w3.org/2000/svg">
<rect width="16" height="16" rx="4" fill="#999999"/>
<path d="M11.375 8.75H10.25V7.25H11.375C12.8 7.25 14 6.05 14 4.625C14 3.2 12.8 2 11.375 2C9.95 2 8.75 3.2 8.75 4.625V5.75H7.25V4.625C7.25 3.2 6.05 2 4.625 2C3.2 2 2 3.2 2 4.625C2 6.05 3.2 7.25 4.625 7.25H5.75V8.75H4.625C3.2 8.75 2 9.95 2 11.375C2 12.8 3.2 14 4.625 14C6.05 14 7.25 12.8 7.25 11.375V10.25H8.75V11.375C8.75 12.8 9.95 14 11.375 14C12.8 14 14 12.8 14 11.375C14 9.95 12.8 8.75 11.375 8.75ZM10.25 4.625C10.25 4.025 10.775 3.5 11.375 3.5C11.975 3.5 12.5 4.025 12.5 4.625C12.5 5.225 11.975 5.75 11.375 5.75H10.25V4.625ZM3.5 4.625C3.5 4.025 4.025 3.5 4.625 3.5C5.225 3.5 5.75 4.025 5.75 4.625V5.75H4.625C4.025 5.75 3.5 5.225 3.5 4.625ZM5.75 11.375C5.75 11.975 5.225 12.5 4.625 12.5C4.025 12.5 3.5 11.975 3.5 11.375C3.5 10.775 4.025 10.25 4.625 10.25H5.75V11.375ZM7.25 7.25H8.75V8.75H7.25V7.25ZM11.375 12.5C10.775 12.5 10.25 11.975 10.25 11.375V10.25H11.375C11.975 10.25 12.5 10.775 12.5 11.375C12.5 11.975 11.975 12.5 11.375 12.5Z" fill="#171618"/>
</svg>
